<?xml version="1.0" encoding="UTF-8"?>
<!DOCTYPE svg PUBLIC "-//W3C//DTD SVG 1.1//EN" "http://www.w3.org/Graphics/SVG/1.1/DTD/svg11.dtd">
<!-- Creator: CorelDRAW 2020 (64-Bit) -->
<svg xmlns="http://www.w3.org/2000/svg" xml:space="preserve" width="423.333mm" height="423.333mm" version="1.1" style="shape-rendering:geometricPrecision; text-rendering:geometricPrecision; image-rendering:optimizeQuality; fill-rule:evenodd; clip-rule:evenodd"
viewBox="0 0 42333.32 42333.32"
 xmlns:xlink="http://www.w3.org/1999/xlink"
 xmlns:xodm="http://www.corel.com/coreldraw/odm/2003">
 <defs>
  <style type="text/css">
   <![CDATA[
    .fil0 {fill:#266090;fill-rule:nonzero}
    .fil1 {fill:#4E4E4F;fill-rule:nonzero}
   ]]>
  </style>
 </defs>
 <g id="Layer_x0020_1">
  <metadata id="CorelCorpID_0Corel-Layer"/>
  <path class="fil0" d="M18088.22 15895.97l0 7060.16c0.01,291.57 -236.44,528.02 -528.01,528.02 -291.57,0 -528.02,-236.45 -528.02,-528.02l0 -7060.16 1056.03 0z"/>
  <path class="fil0" d="M19830.13 17499.2l0 5457.07c0.01,291.56 -236.45,528.01 -528.01,528.01 -291.57,0 -528.02,-236.45 -528.02,-528.01l0 -5457.07 1056.03 0z"/>
  <rect class="fil0" x="18774.09" y="9900.41" width="1056.03" height="6115.45"/>
  <rect class="fil0" x="17018.58" y="11576.85" width="1056.03" height="2817.53"/>
  <path class="fil0" d="M19837.47 8419.92l-1077.26 0 0 -539.44c0.03,-1.26 0.03,-2.58 0.03,-3.85 0,-49.69 -8.61,-99.14 -25.35,-145.88 -47.35,-128.71 -155.53,-206.01 -288.9,-206.01l-16.47 0c-133.5,5.99 -264.69,85.33 -320.62,206.86 -22.11,46.45 -33.86,97.39 -34.29,148.88l0 2227.18 -1056.03 0 0 -2421.25c11.69,-81.58 30.66,-162.07 56.01,-240.44 0.25,-0.94 0.61,-1.85 1.02,-2.74 8.57,-26.4 17.83,-52.12 27.22,-75.8 9.39,-23.68 19.86,-48.99 30.89,-73.35 233.39,-506.55 737.05,-834.35 1294.66,-842.49l17.61 -0.02c1.52,-0.01 3.56,-0.01 5.09,-0.01 291.06,0 575.15,91.41 811.5,260.98 249.32,179.09 429.49,434.66 521.35,739.22 4.77,15.65 9.26,31.57 13.61,47.5 30.07,112.54 39.19,299.39 39.33,300.88 1.15,167.7 0.6,619.78 0.6,619.78z"/>
  <path class="fil0" d="M27953.94 23023.22c-44.84,252.02 -264.06,435.71 -520.11,435.71 -172.14,0 -333.7,-83.98 -432.51,-224.9l-5311.44 -7573.36c-7.75,-6.67 -84.77,-73.76 -125.47,-97.71 -54.67,-32.46 -117.17,-49.65 -180.75,-49.65 -67.05,0 -132.83,19.1 -189.41,54.95l-13.61 9.12c-109.96,76.48 -154.73,201.68 -119.76,335.04 2.66,10.32 5.92,20.64 9.56,30.64l3.4 9.12 -975.9 -0.01 -0.81 -5.85c-73.22,-535.5 98.25,-990.98 470.45,-1249.68 4.76,-3.4 9.79,-6.67 14.69,-10.07 238.99,-160.81 520.98,-246.97 809.16,-246.97 258.28,0 512.14,69.18 734.69,200.09 21.91,13.61 43.96,27.22 67.36,42.46 21.1,13.61 42.6,29.26 65.87,46.81l1.77 1.23c65.33,49.36 126.99,105.18 182.98,165.07l5422.64 7732.43c62.16,88.29 95.61,193.89 95.61,302 0,31.33 -2.82,62.74 -8.4,93.55l-0.01 -0.02z"/>
  <path class="fil0" d="M25973.48 23023.36c-44.84,252.02 -264.07,435.7 -520.12,435.7 -172.14,0 -333.7,-83.97 -432.51,-224.9l-4021.35 -5733.46 1290.52 0 2.04 2.85 3592.69 5124.21c62.92,88.67 96.85,194.87 96.85,303.62 0,30.79 -2.75,61.71 -8.13,91.99l0.01 -0.01z"/>
  <path class="fil0" d="M18533.22 10320.78l0 1056.03 -3530.22 0c-291.56,0 -528.01,-236.45 -528.01,-528.02 0,-291.56 236.45,-528.01 528.02,-528.01l3530.21 0z"/>
  <path class="fil0" d="M25845.56 12965.21c0,619.05 -167.25,1199.6 -471,1634.8 -420.24,602.59 -1092.64,970.44 -1844.79,1009.08l-288.37 0.01 -689.68 -873.13c0,0 764.4,-48.72 1029.22,-87.51 1091.01,-160.04 1230.9,-950.84 1230.9,-1622.01 0,-894.77 -454.12,-1511.52 -1214.7,-1649.78l-3511.04 0 0 -1056.03 3432.24 0c31.98,1.5 64.64,3.81 97.71,6.81l0 0 6.12 0c603.68,56.06 1163.27,353.82 1576.43,840.46 417.52,491.01 646.96,1129.11 646.96,1797.3z"/>
  <path class="fil0" d="M27641.76 12913.36l0 0c-28.79,1984.15 -1396.01,3699.16 -3323.74,4168.72l-4.22 0.96 -2.72 -3.27c-317.76,-386.49 -696.76,-849.46 -697.17,-860.34l0 -6.67 6.67 0c1705.98,-96.62 3042.35,-1527.85 3042.35,-3258.45 0,-12.39 0,-24.64 0,-36.88l0 -3.67c-20.68,-1711.7 -1355.96,-3127.95 -3039.9,-3224.3l-5277.47 0.02 0 -1056.03 6.81 -0.01 5277.29 0.95c2241.61,176.33 3980.11,2031.27 4012.01,4279.1l0.09 -0.13z"/>
  <path class="fil0" d="M16782.2 8633.3l0 1056.03 -1779.2 0c-291.56,0.01 -528.01,-236.44 -528.01,-528.01 0,-291.57 236.45,-528.02 528.02,-528.02l1779.19 0z"/>
  <path class="fil0" d="M18477.57 14607.5l0 1056.03 -3460.96 0c-291.56,0.01 -528.01,-236.44 -528.01,-528.01 0,-291.57 236.45,-528.02 528.01,-528.02l3460.96 0z"/>
  <path class="fil0" d="M16782.2 16226.93l0 1056.03 -1779.2 0c-291.56,0 -528.01,-236.45 -528.01,-528.01 0,-291.57 236.45,-528.02 528.02,-528.02l1779.19 0z"/>
  <polygon class="fil0" points="22561.92,17282.96 18325.01,17282.96 18325.01,16226.93 21830.87,16226.93 "/>
  <path class="fil0" d="M9694.98 32280.98l-1331.73 -2543.3 -10.01 0 0 2543.3 -2222.89 0 0 -7089.21 3304.29 0c574.08,0 1064.72,101.8 1471.92,305.4 407.19,203.59 712.59,480.62 916.19,831.08 203.59,350.45 305.39,745.96 305.39,1186.54 0,473.95 -131.83,894.49 -395.51,1261.64 -263.68,367.14 -642.5,630.82 -1136.48,791.02l1542.01 2713.53 -2443.18 0zm-1341.74 -4025.23l881.14 0c213.61,0 373.82,-48.4 480.63,-145.19 106.8,-96.79 160.21,-248.66 160.21,-455.59 0,-186.91 -55.08,-333.77 -165.22,-440.57 -110.14,-106.81 -268.68,-160.21 -475.62,-160.21l-881.14 0 0 1201.56zm7049.16 -3063.98l0 7089.21 -2222.89 0 0 -7089.21 2222.89 0zm6908.97 0l0 1762.29 -1882.44 0 0 5326.92 -2222.89 0 0 -5326.92 -1862.42 0 0 -1762.29 5967.75 0zm3164.11 1772.3l0 871.13 2202.86 0 0 1672.18 -2202.86 0 0 1001.3 2503.25 0 0 1772.3 -4726.14 0 0 -7089.21 4726.14 0 0 1772.3 -2503.25 0zm8200.65 5316.91l-1301.69 -1842.39 -1081.41 1842.39 -2533.29 0 2333.03 -3654.75 -2433.16 -3434.46 2633.42 0 1251.63 1772.3 1041.35 -1772.3 2533.29 0 -2292.98 3584.66 2483.23 3504.55 -2633.42 0z"/>
  <path class="fil1" d="M7078.99 35849.45c-173.9,0 -333.31,-40.4 -478.23,-121.2 -144.92,-80.81 -259.98,-193.67 -345.17,-338.59 -85.2,-144.92 -127.8,-307.84 -127.8,-488.77 0,-180.93 42.6,-343.42 127.8,-487.46 85.19,-144.04 200.25,-256.47 345.17,-337.27 144.92,-80.8 304.33,-121.21 478.23,-121.21 173.91,0 333.32,40.41 478.24,121.21 144.92,80.8 259.1,193.23 342.54,337.27 83.44,144.04 125.16,306.53 125.16,487.46 0,180.93 -42.16,343.85 -126.48,488.77 -84.32,144.92 -198.49,257.78 -342.54,338.59 -144.04,80.8 -303.01,121.2 -476.92,121.2zm0 -411.04c147.56,0 265.69,-49.19 354.4,-147.56 88.71,-98.37 133.06,-228.36 133.06,-389.96 0,-163.37 -44.35,-293.8 -133.06,-391.29 -88.71,-97.49 -206.84,-146.23 -354.4,-146.23 -149.31,0 -268.32,48.3 -357.03,144.92 -88.7,96.61 -133.06,227.48 -133.06,392.6 0,163.36 44.36,293.79 133.06,391.28 88.71,97.49 207.72,146.24 357.03,146.24zm3295.75 -1457.11l-656.09 1849.71 -563.87 0 -656.1 -1849.71 479.56 0 458.47 1396.51 461.11 -1396.51 476.92 0zm1000.73 360.99l0 374.15 603.4 0 0 347.81 -603.4 0 0 405.78 682.45 0 0 360.98 -1133.02 0 0 -1849.71 1133.02 0 0 360.99 -682.45 0zm2281.31 1488.72l-384.69 -698.25 -108.04 0 0 698.25 -450.57 0 0 -1849.71 756.22 0c145.8,0 270.08,25.47 372.84,76.42 102.76,50.94 179.62,120.76 230.56,209.47 50.94,88.71 76.41,187.52 76.41,296.43 0,122.96 -34.69,232.75 -104.08,329.36 -69.38,96.62 -171.71,165.12 -306.97,205.53l426.86 732.5 -508.54 0zm-492.73 -1017.08l279.3 0c82.57,0 144.49,-20.2 185.77,-60.6 41.28,-40.4 61.92,-97.49 61.92,-171.27 0,-70.26 -20.64,-125.59 -61.92,-166 -41.28,-40.4 -103.2,-60.6 -185.77,-60.6l-279.3 0 0 458.47zm2299.75 1035.52c-135.26,0 -256.46,-21.95 -363.62,-65.87 -107.15,-43.91 -192.78,-108.91 -256.9,-194.98 -64.12,-86.08 -97.93,-189.72 -101.44,-310.92l479.55 0c7.03,68.51 30.74,120.77 71.14,156.78 40.4,36.01 93.1,54.01 158.1,54.01 66.75,0 119.45,-15.37 158.09,-46.11 38.65,-30.74 57.97,-73.34 57.97,-127.79 0,-45.67 -15.37,-83.44 -46.11,-113.3 -30.74,-29.87 -68.51,-54.46 -113.3,-73.78 -44.8,-19.32 -108.47,-41.28 -191.03,-65.87 -119.45,-36.89 -216.94,-73.78 -292.48,-110.67 -75.53,-36.89 -140.53,-91.34 -194.98,-163.36 -54.46,-72.03 -81.68,-166 -81.68,-281.94 0,-172.15 62.36,-306.97 187.07,-404.46 124.72,-97.49 287.21,-146.24 487.46,-146.24 203.77,0 368.01,48.75 492.73,146.24 124.72,97.49 191.47,233.19 200.25,407.1l-487.45 0c-3.52,-59.73 -25.47,-106.72 -65.88,-140.97 -40.4,-34.26 -92.22,-51.38 -155.46,-51.38 -54.45,0 -98.37,14.49 -131.74,43.47 -33.38,28.99 -50.07,70.71 -50.07,125.16 0,59.73 28.11,106.28 84.32,139.65 56.21,33.38 144.04,69.39 263.49,108.03 119.45,40.4 216.5,79.05 291.16,115.94 74.66,36.89 139.21,90.46 193.67,160.73 54.45,70.26 81.68,160.73 81.68,271.39 0,105.4 -26.79,201.14 -80.37,287.21 -53.57,86.07 -131.3,154.58 -233.19,205.52 -101.88,50.94 -222.21,76.41 -360.98,76.41zm1764.86 -1507.16l0 374.15 603.4 0 0 347.81 -603.4 0 0 405.78 682.45 0 0 360.98 -1133.02 0 0 -1849.71 1133.02 0 0 360.99 -682.45 0zm2489.47 1161.99l-690.35 0 -110.66 326.73 -471.65 0 669.27 -1849.71 521.71 0 669.27 1849.71 -476.92 0 -110.67 -326.73zm-115.94 -347.81l-229.23 -677.17 -226.61 677.17 455.84 0zm1938.77 692.98c-135.26,0 -256.46,-21.95 -363.62,-65.87 -107.15,-43.91 -192.78,-108.91 -256.9,-194.98 -64.12,-86.08 -97.93,-189.72 -101.44,-310.92l479.55 0c7.03,68.51 30.74,120.77 71.14,156.78 40.4,36.01 93.1,54.01 158.1,54.01 66.75,0 119.45,-15.37 158.09,-46.11 38.65,-30.74 57.97,-73.34 57.97,-127.79 0,-45.67 -15.37,-83.44 -46.11,-113.3 -30.74,-29.87 -68.51,-54.46 -113.3,-73.78 -44.8,-19.32 -108.47,-41.28 -191.03,-65.87 -119.45,-36.89 -216.94,-73.78 -292.48,-110.67 -75.53,-36.89 -140.53,-91.34 -194.98,-163.36 -54.46,-72.03 -81.68,-166 -81.68,-281.94 0,-172.15 62.36,-306.97 187.07,-404.46 124.72,-97.49 287.21,-146.24 487.46,-146.24 203.77,0 368.01,48.75 492.73,146.24 124.72,97.49 191.47,233.19 200.25,407.1l-487.45 0c-3.52,-59.73 -25.47,-106.72 -65.88,-140.97 -40.4,-34.26 -92.22,-51.38 -155.46,-51.38 -54.45,0 -98.37,14.49 -131.74,43.47 -33.38,28.99 -50.07,70.71 -50.07,125.16 0,59.73 28.11,106.28 84.32,139.65 56.21,33.38 144.04,69.39 263.49,108.03 119.45,40.4 216.5,79.05 291.16,115.94 74.66,36.89 139.21,90.46 193.67,160.73 54.45,70.26 81.68,160.73 81.68,271.39 0,105.4 -26.79,201.14 -80.37,287.21 -53.57,86.07 -131.3,154.58 -233.19,205.52 -101.88,50.94 -222.21,76.41 -360.98,76.41zm3645.66 -1272.66c0,107.16 -24.59,205.09 -73.78,293.8 -49.18,88.7 -124.72,160.29 -226.6,214.74 -101.88,54.46 -228.36,81.68 -379.43,81.68l-279.3 0 0 664 -450.57 0 0 -1849.71 729.87 0c147.56,0 272.28,25.47 374.16,76.42 101.88,50.94 178.3,121.2 229.24,210.79 50.94,89.59 76.41,192.35 76.41,308.28zm-714.06 231.87c86.07,0 150.19,-20.2 192.35,-60.6 42.16,-40.4 63.24,-97.49 63.24,-171.27 0,-73.77 -21.08,-130.86 -63.24,-171.27 -42.16,-40.4 -106.28,-60.6 -192.35,-60.6l-245.05 0 0 463.74 245.05 0zm3048.06 -827.36l-656.09 1849.71 -563.87 0 -656.1 -1849.71 479.56 0 458.47 1396.51 461.11 -1396.51 476.92 0zm1880.79 0l0 360.99 -490.09 0 0 1488.72 -450.57 0 0 -1488.72 -490.09 0 0 -360.99 1430.75 0zm1961.95 1501.9l590.22 0 0 347.81 -1040.79 0 0 -1849.71 450.57 0 0 1501.9zm2500 -1501.9l0 360.99 -490.09 0 0 1488.72 -450.57 0 0 -1488.72 -490.09 0 0 -360.99 1430.75 0zm1282.68 0c194.98,0 365.37,38.65 511.17,115.94 145.8,77.29 258.66,185.76 338.58,325.41 79.93,139.65 119.89,300.82 119.89,483.51 0,180.93 -39.96,341.66 -119.89,482.19 -79.92,140.52 -193.22,249.43 -339.9,326.72 -146.68,77.29 -316.63,115.94 -509.85,115.94l-692.99 0 0 -1849.71 692.99 0zm-28.99 1459.74c170.39,0 303.02,-46.55 397.87,-139.65 94.86,-93.1 142.29,-224.84 142.29,-395.23 0,-170.39 -47.43,-303.02 -142.29,-397.87 -94.85,-94.86 -227.48,-142.29 -397.87,-142.29l-213.43 0 0 1075.04 213.43 0z"/>
 </g>
</svg>
